<svg width="393" height="406" viewBox="0 0 393 406" fill="none" xmlns="http://www.w3.org/2000/svg">
<g opacity="0.75">
<path d="M337.662 288.382C333.515 288.387 329.53 286.771 326.558 283.878L326.55 283.87C326.206 283.612 325.838 283.389 325.45 283.205C324.282 282.662 323.007 282.389 321.719 282.403C320.069 282.403 318.814 282.814 317.993 283.205C317.603 283.389 317.233 283.612 316.888 283.87L316.88 283.878C315.006 285.698 312.714 287.029 310.205 287.754C307.696 288.48 305.047 288.578 302.491 288.04C299.936 287.502 297.551 286.344 295.547 284.669C293.544 282.993 291.983 280.851 291.001 278.431C290.02 276.01 289.648 273.386 289.918 270.788C290.189 268.19 291.093 265.698 292.553 263.532C294.012 261.366 295.981 259.591 298.287 258.364C300.593 257.137 303.164 256.496 305.776 256.496H337.662C341.89 256.496 345.945 258.176 348.935 261.166C351.925 264.155 353.605 268.211 353.605 272.439C353.605 276.667 351.925 280.723 348.935 283.713C345.945 286.702 341.89 288.382 337.662 288.382Z" fill="#01008C"/>
<path d="M294.17 243.835C287.004 243.844 280.119 241.039 274.983 236.02L274.969 236.006C274.376 235.558 273.739 235.171 273.068 234.851C271.05 233.91 268.847 233.435 266.622 233.461C263.771 233.461 261.601 234.173 260.183 234.851C259.51 235.171 258.871 235.558 258.275 236.006L258.261 236.02C255.023 239.177 251.062 241.487 246.727 242.746C242.391 244.005 237.814 244.176 233.398 243.242C228.981 242.308 224.861 240.299 221.399 237.392C217.937 234.484 215.239 230.767 213.543 226.566C211.847 222.366 211.205 217.812 211.672 213.304C212.14 208.796 213.703 204.472 216.224 200.713C218.746 196.954 222.148 193.874 226.132 191.745C230.117 189.616 234.561 188.503 239.074 188.503H294.17C301.477 188.503 308.484 191.418 313.65 196.607C318.816 201.795 321.719 208.832 321.719 216.169C321.719 223.507 318.816 230.544 313.65 235.732C308.484 240.92 301.477 243.835 294.17 243.835Z" fill="#01008C"/>
<path d="M266.856 170.216C262.709 170.221 258.724 168.604 255.752 165.712L255.744 165.704C255.401 165.446 255.032 165.223 254.644 165.038C253.476 164.496 252.201 164.222 250.913 164.237C249.263 164.237 248.008 164.648 247.187 165.038C246.797 165.223 246.428 165.446 246.083 165.704L246.075 165.712C244.201 167.531 241.909 168.862 239.399 169.588C236.89 170.314 234.242 170.412 231.686 169.874C229.13 169.336 226.745 168.178 224.742 166.502C222.738 164.827 221.177 162.685 220.195 160.264C219.214 157.844 218.842 155.219 219.113 152.621C219.383 150.023 220.288 147.532 221.747 145.366C223.206 143.199 225.175 141.425 227.481 140.198C229.787 138.971 232.359 138.329 234.971 138.33H266.856C271.085 138.33 275.14 140.009 278.13 142.999C281.119 145.989 282.799 150.044 282.799 154.273C282.799 158.501 281.119 162.556 278.13 165.546C275.14 168.536 271.085 170.216 266.856 170.216Z" fill="#01008C"/>
<path d="M223.365 125.669C216.199 125.677 209.313 122.873 204.177 117.853L204.164 117.839C203.57 117.392 202.933 117.005 202.263 116.684C200.244 115.743 198.042 115.268 195.816 115.294C192.965 115.294 190.796 116.007 189.377 116.684C188.704 117.004 188.065 117.391 187.469 117.839L187.456 117.853C184.217 121.01 180.256 123.32 175.921 124.579C171.586 125.839 167.008 126.009 162.592 125.076C158.176 124.142 154.055 122.133 150.593 119.225C147.131 116.318 144.434 112.6 142.738 108.4C141.042 104.2 140.399 99.6454 140.866 95.1374C141.334 90.6293 142.897 86.3057 145.418 82.5465C147.94 78.7874 151.342 75.708 155.327 73.579C159.311 71.4501 163.755 70.3368 168.268 70.337H223.365C230.671 70.337 237.678 73.2518 242.844 78.4402C248.011 83.6286 250.913 90.6655 250.913 98.003C250.913 105.34 248.011 112.377 242.844 117.566C237.678 122.754 230.671 125.669 223.365 125.669Z" fill="#01008C"/>
<path d="M250.444 365.753C246.297 365.758 242.312 364.142 239.34 361.249L239.332 361.241C238.989 360.983 238.62 360.76 238.232 360.575C237.064 360.033 235.789 359.759 234.501 359.774C232.851 359.774 231.596 360.185 230.775 360.575C230.385 360.76 230.015 360.983 229.671 361.241L229.663 361.249C227.789 363.068 225.496 364.399 222.987 365.125C220.478 365.851 217.829 365.949 215.274 365.411C212.718 364.873 210.333 363.715 208.33 362.04C206.326 360.364 204.765 358.222 203.783 355.801C202.802 353.381 202.43 350.756 202.701 348.159C202.971 345.561 203.876 343.069 205.335 340.903C206.794 338.737 208.763 336.962 211.069 335.735C213.375 334.508 215.947 333.867 218.559 333.867H250.444C254.673 333.867 258.728 335.547 261.718 338.536C264.707 341.526 266.387 345.582 266.387 349.81C266.387 354.038 264.707 358.093 261.718 361.083C258.728 364.073 254.673 365.753 250.444 365.753Z" fill="#01008C"/>
<path d="M206.953 321.206C199.787 321.214 192.901 318.41 187.765 313.39L187.752 313.377C187.158 312.929 186.521 312.542 185.851 312.222C183.832 311.281 181.63 310.806 179.404 310.831C176.553 310.831 174.384 311.544 172.965 312.222C172.292 312.541 171.653 312.928 171.057 313.377L171.043 313.39C167.805 316.548 163.844 318.857 159.509 320.117C155.173 321.376 150.596 321.546 146.18 320.613C141.764 319.679 137.643 317.67 134.181 314.763C130.719 311.855 128.022 308.137 126.325 303.937C124.629 299.737 123.987 295.183 124.454 290.675C124.922 286.167 126.485 281.843 129.006 278.084C131.528 274.325 134.93 271.245 138.915 269.116C142.899 266.987 147.343 265.874 151.856 265.874H206.953C214.259 265.874 221.266 268.789 226.432 273.977C231.599 279.166 234.501 286.203 234.501 293.54C234.501 300.878 231.599 307.915 226.432 313.103C221.266 318.291 214.259 321.206 206.953 321.206Z" fill="#01008C"/>
<path d="M179.638 247.587C175.491 247.591 171.506 245.975 168.534 243.083L168.526 243.075C168.182 242.817 167.814 242.594 167.426 242.409C166.258 241.867 164.983 241.593 163.695 241.608C162.045 241.608 160.79 242.018 159.969 242.409C159.579 242.593 159.209 242.816 158.865 243.075L158.857 243.083C156.983 244.902 154.69 246.233 152.181 246.959C149.672 247.685 147.023 247.783 144.467 247.245C141.912 246.707 139.527 245.549 137.524 243.873C135.52 242.198 133.959 240.055 132.977 237.635C131.996 235.215 131.624 232.59 131.894 229.992C132.165 227.394 133.07 224.903 134.529 222.736C135.988 220.57 137.957 218.796 140.263 217.569C142.569 216.342 145.141 215.7 147.752 215.7H179.638C183.866 215.7 187.922 217.38 190.911 220.37C193.901 223.36 195.581 227.415 195.581 231.644C195.581 235.872 193.901 239.927 190.911 242.917C187.922 245.907 183.866 247.587 179.638 247.587Z" fill="#01008C"/>
<path d="M136.147 203.04C128.98 203.048 122.095 200.243 116.959 195.224L116.945 195.21C116.352 194.762 115.715 194.375 115.045 194.055C113.026 193.114 110.823 192.639 108.598 192.665C105.747 192.665 103.578 193.377 102.159 194.055C101.486 194.375 100.847 194.762 100.251 195.21L100.237 195.224C96.9991 198.381 93.0382 200.691 88.7027 201.95C84.3673 203.21 79.7901 203.38 75.3738 202.446C70.9574 201.513 66.8371 199.504 63.375 196.596C59.913 193.688 57.2154 189.971 55.5193 185.771C53.8233 181.571 53.1807 177.016 53.6482 172.508C54.1156 168 55.6788 163.677 58.2002 159.917C60.7216 156.158 64.1241 153.079 68.1084 150.95C72.0927 148.821 76.5368 147.708 81.0499 147.708H136.147C143.453 147.708 150.46 150.623 155.626 155.811C160.792 160.999 163.695 168.036 163.695 175.374C163.695 182.711 160.792 189.748 155.626 194.937C150.46 200.125 143.453 203.04 136.147 203.04Z" fill="#01008C"/>
<path d="M458.759 55.3319C451.593 55.3402 444.708 52.5355 439.572 47.5162L439.558 47.5024C438.965 47.0545 438.328 46.6676 437.657 46.3473C435.639 45.4064 433.436 44.9314 431.211 44.9571C428.36 44.9571 426.19 45.6695 424.772 46.3473C424.099 46.6672 423.46 47.0541 422.864 47.5024L422.85 47.5162C419.612 50.6733 415.651 52.9831 411.316 54.2425C406.98 55.5018 402.403 55.6722 397.987 54.7386C393.57 53.805 389.45 51.796 385.988 48.8882C382.526 45.9805 379.828 42.2631 378.132 38.0629C376.436 33.8627 375.794 29.3084 376.261 24.8003C376.728 20.2923 378.292 15.9686 380.813 12.2095C383.334 8.45038 386.737 5.37096 390.721 3.24199C394.705 1.11303 399.15 -0.000265112 403.663 4.73546e-08H458.759C466.066 4.73546e-08 473.073 2.91479 478.239 8.10316C483.405 13.2915 486.308 20.3285 486.308 27.6659C486.308 35.0034 483.405 42.0403 478.239 47.2287C473.073 52.4171 466.066 55.3319 458.759 55.3319Z" fill="#01008C"/>
<path d="M442.348 250.869C435.182 250.877 428.296 248.073 423.16 243.053L423.147 243.04C422.553 242.592 421.916 242.205 421.246 241.885C419.227 240.944 417.025 240.469 414.799 240.494C411.948 240.494 409.779 241.207 408.36 241.885C407.687 242.204 407.048 242.591 406.452 243.04L406.438 243.053C403.2 246.211 399.239 248.52 394.904 249.78C390.568 251.039 385.991 251.209 381.575 250.276C377.159 249.342 373.038 247.333 369.576 244.425C366.114 241.518 363.417 237.8 361.721 233.6C360.024 229.4 359.382 224.846 359.849 220.338C360.317 215.83 361.88 211.506 364.401 207.747C366.923 203.988 370.325 200.908 374.31 198.779C378.294 196.65 382.738 195.537 387.251 195.537H442.348C449.654 195.537 456.661 198.452 461.827 203.64C466.994 208.829 469.896 215.866 469.896 223.203C469.896 230.541 466.994 237.578 461.827 242.766C456.661 247.954 449.654 250.869 442.348 250.869Z" fill="#01008C"/>
<path d="M415.033 177.25C410.886 177.254 406.901 175.638 403.929 172.746L403.921 172.738C403.577 172.48 403.209 172.257 402.821 172.072C401.653 171.53 400.378 171.256 399.09 171.271C397.44 171.271 396.185 171.682 395.364 172.072C394.974 172.256 394.604 172.479 394.26 172.738L394.252 172.746C392.378 174.565 390.085 175.896 387.576 176.622C385.067 177.348 382.418 177.446 379.862 176.908C377.307 176.37 374.922 175.212 372.919 173.536C370.915 171.861 369.354 169.719 368.372 167.298C367.391 164.878 367.019 162.253 367.289 159.655C367.56 157.057 368.465 154.566 369.924 152.4C371.383 150.233 373.352 148.459 375.658 147.232C377.964 146.005 380.536 145.363 383.147 145.364H415.033C419.261 145.364 423.317 147.043 426.306 150.033C429.296 153.023 430.976 157.078 430.976 161.307C430.976 165.535 429.296 169.59 426.306 172.58C423.317 175.57 419.261 177.25 415.033 177.25Z" fill="#01008C"/>
<path d="M371.542 132.703C364.375 132.711 357.49 129.906 352.354 124.887L352.34 124.873C351.747 124.425 351.11 124.038 350.44 123.718C348.421 122.777 346.218 122.302 343.993 122.328C341.142 122.328 338.973 123.04 337.554 123.718C336.881 124.038 336.242 124.425 335.646 124.873L335.632 124.887C332.394 128.044 328.433 130.354 324.098 131.613C319.762 132.873 315.185 133.043 310.769 132.109C306.352 131.176 302.232 129.167 298.77 126.259C295.308 123.351 292.61 119.634 290.914 115.434C289.218 111.234 288.576 106.679 289.043 102.171C289.511 97.6631 291.074 93.3395 293.595 89.5803C296.117 85.8212 299.519 82.7418 303.503 80.6128C307.488 78.4839 311.932 77.3706 316.445 77.3708H371.542C378.848 77.3708 385.855 80.2856 391.021 85.474C396.187 90.6624 399.09 97.6993 399.09 105.037C399.09 112.374 396.187 119.411 391.021 124.6C385.855 129.788 378.848 132.703 371.542 132.703Z" fill="#01008C"/>
<path d="M168.502 432.808C161.335 432.816 154.45 430.011 149.314 424.992L149.3 424.978C148.707 424.53 148.07 424.143 147.4 423.823C145.381 422.882 143.178 422.407 140.953 422.433C138.102 422.433 135.933 423.145 134.514 423.823C133.841 424.143 133.202 424.53 132.606 424.978L132.592 424.992C129.354 428.149 125.393 430.459 121.058 431.718C116.722 432.978 112.145 433.148 107.729 432.214C103.312 431.281 99.192 429.272 95.73 426.364C92.268 423.456 89.5704 419.739 87.8743 415.539C86.1782 411.339 85.5357 406.784 86.0032 402.276C86.4706 397.768 88.0338 393.444 90.5552 389.685C93.0766 385.926 96.4791 382.847 100.463 380.718C104.448 378.589 108.892 377.476 113.405 377.476H168.502C175.808 377.476 182.815 380.391 187.981 385.579C193.147 390.767 196.05 397.804 196.05 405.142C196.05 412.479 193.147 419.516 187.981 424.705C182.815 429.893 175.808 432.808 168.502 432.808Z" fill="#01008C"/>
<path d="M403.897 362.471C396.73 362.479 389.845 359.674 384.709 354.655L384.695 354.641C384.102 354.193 383.465 353.806 382.795 353.486C380.776 352.545 378.573 352.07 376.348 352.096C373.497 352.096 371.328 352.808 369.909 353.486C369.236 353.806 368.597 354.193 368.001 354.641L367.987 354.655C364.749 357.812 360.788 360.122 356.453 361.381C352.117 362.64 347.54 362.811 343.124 361.877C338.707 360.944 334.587 358.935 331.125 356.027C327.663 353.119 324.965 349.402 323.269 345.202C321.573 341.001 320.931 336.447 321.398 331.939C321.866 327.431 323.429 323.107 325.95 319.348C328.472 315.589 331.874 312.51 335.858 310.381C339.843 308.252 344.287 307.138 348.8 307.139H403.897C411.203 307.139 418.21 310.053 423.376 315.242C428.542 320.43 431.445 327.467 431.445 334.805C431.445 342.142 428.542 349.179 423.376 354.367C418.21 359.556 411.203 362.471 403.897 362.471Z" fill="#01008C"/>
<path d="M316.678 439.841C309.512 439.85 302.626 437.045 297.491 432.026L297.477 432.012C296.884 431.564 296.247 431.177 295.576 430.857C293.558 429.916 291.355 429.441 289.13 429.467C286.279 429.467 284.109 430.179 282.691 430.857C282.018 431.177 281.379 431.564 280.783 432.012L280.769 432.026C277.531 435.183 273.57 437.493 269.234 438.752C264.899 440.011 260.322 440.182 255.906 439.248C251.489 438.314 247.369 436.305 243.907 433.398C240.445 430.49 237.747 426.773 236.051 422.572C234.355 418.372 233.712 413.818 234.18 409.31C234.647 404.802 236.211 400.478 238.732 396.719C241.253 392.96 244.656 389.88 248.64 387.752C252.624 385.623 257.069 384.509 261.582 384.51H316.678C323.985 384.51 330.992 387.424 336.158 392.613C341.324 397.801 344.227 404.838 344.227 412.175C344.227 419.513 341.324 426.55 336.158 431.738C330.992 436.927 323.985 439.841 316.678 439.841Z" fill="#01008C"/>
<path d="M92.4203 356.375C88.2731 356.38 84.2882 354.763 81.3161 351.871L81.3081 351.863C80.9646 351.605 80.5961 351.382 80.2081 351.197C79.0399 350.655 77.7652 350.381 76.4774 350.396C74.8274 350.396 73.5719 350.807 72.7508 351.197C72.3614 351.382 71.9915 351.605 71.6468 351.863L71.6388 351.871C69.7648 353.69 67.4725 355.021 64.9635 355.747C62.4544 356.473 59.8055 356.571 57.2497 356.033C54.6938 355.495 52.3093 354.337 50.3057 352.662C48.3022 350.986 46.741 348.844 45.7595 346.423C44.7779 344.003 44.406 341.378 44.6766 338.78C44.9471 336.183 45.8517 333.691 47.311 331.525C48.7702 329.358 50.7392 327.584 53.045 326.357C55.3508 325.13 57.9227 324.489 60.5346 324.489H92.4203C96.6486 324.489 100.704 326.168 103.694 329.158C106.683 332.148 108.363 336.203 108.363 340.432C108.363 344.66 106.683 348.715 103.694 351.705C100.704 354.695 96.6486 356.375 92.4203 356.375Z" fill="#01008C"/>
<path d="M48.9283 311.828C41.7621 311.836 34.8765 309.032 29.7409 304.012L29.7271 303.999C29.1335 303.551 28.4967 303.164 27.8263 302.844C25.8078 301.903 23.6051 301.428 21.38 301.453C18.5287 301.453 16.3593 302.166 14.9405 302.844C14.2677 303.163 13.6286 303.55 13.0328 303.999L13.0191 304.012C9.78086 307.17 5.8199 309.479 1.48446 310.739C-2.85099 311.998 -7.42812 312.168 -11.8445 311.235C-16.2609 310.301 -20.3812 308.292 -23.8432 305.384C-27.3052 302.477 -30.0029 298.759 -31.6989 294.559C-33.395 290.359 -34.0375 285.805 -33.5701 281.297C-33.1026 276.789 -31.5395 272.465 -29.018 268.706C-26.4966 264.947 -23.0942 261.867 -19.1099 259.738C-15.1256 257.609 -10.6815 256.496 -6.16834 256.496H48.9283C56.2345 256.496 63.2415 259.411 68.4079 264.599C73.5742 269.788 76.4766 276.825 76.4766 284.162C76.4766 291.5 73.5742 298.537 68.4079 303.725C63.2415 308.913 56.2345 311.828 48.9283 311.828Z" fill="#01008C"/>
<path d="M21.6141 238.209C17.4669 238.213 13.4821 236.597 10.51 233.705L10.502 233.697C10.1585 233.439 9.78994 233.216 9.40193 233.031C8.23379 232.489 6.95905 232.215 5.6713 232.23C4.02121 232.23 2.76572 232.64 1.94466 233.031C1.55526 233.215 1.18539 233.438 0.840618 233.697L0.832645 233.705C-1.04137 235.524 -3.33367 236.855 -5.84269 237.581C-8.35172 238.306 -11.0006 238.405 -13.5565 237.867C-16.1123 237.329 -18.4969 236.171 -20.5004 234.495C-22.504 232.82 -24.0651 230.677 -25.0467 228.257C-26.0283 225.837 -26.4001 223.212 -26.1296 220.614C-25.859 218.016 -24.9544 215.525 -23.4952 213.358C-22.036 211.192 -20.0669 209.418 -17.7611 208.191C-15.4553 206.964 -12.8834 206.322 -10.2715 206.322H21.6141C25.8425 206.322 29.8976 208.002 32.8874 210.992C35.8773 213.982 37.557 218.037 37.557 222.265C37.557 226.494 35.8773 230.549 32.8874 233.539C29.8976 236.529 25.8425 238.209 21.6141 238.209Z" fill="#01008C"/>
<path d="M-21.8774 193.662C-29.0436 193.67 -35.9292 190.865 -41.0648 185.846L-41.0786 185.832C-41.6721 185.384 -42.3089 184.997 -42.9794 184.677C-44.9979 183.736 -47.2005 183.261 -49.4257 183.287C-52.277 183.287 -54.4464 183.999 -55.8651 184.677C-56.538 184.997 -57.1771 185.384 -57.7728 185.832L-57.7866 185.846C-61.0248 189.003 -64.9858 191.313 -69.3212 192.572C-73.6566 193.832 -78.2338 194.002 -82.6502 193.068C-87.0665 192.135 -91.1869 190.126 -94.6489 187.218C-98.1109 184.31 -100.809 180.593 -102.505 176.393C-104.201 172.193 -104.843 167.638 -104.376 163.13C-103.908 158.622 -102.345 154.298 -99.8237 150.539C-97.3023 146.78 -93.8998 143.701 -89.9156 141.572C-85.9313 139.443 -81.4872 138.33 -76.974 138.33H-21.8774C-14.5711 138.33 -7.56412 141.245 -2.39781 146.433C2.7685 151.621 5.67091 158.658 5.67091 165.996C5.67091 173.333 2.7685 180.37 -2.39781 185.559C-7.56412 190.747 -14.5711 193.662 -21.8774 193.662Z" fill="#01008C"/>
<path d="M5.20204 433.746C1.05482 433.751 -2.93005 432.134 -5.90216 429.242L-5.91013 429.234C-6.25364 428.976 -6.62216 428.753 -7.01018 428.568C-8.17832 428.026 -9.45306 427.752 -10.7408 427.767C-12.3909 427.767 -13.6464 428.178 -14.4674 428.568C-14.8568 428.753 -15.2267 428.976 -15.5715 429.234L-15.5795 429.242C-17.4535 431.061 -19.7458 432.392 -22.2548 433.118C-24.7638 433.844 -27.4127 433.942 -29.9686 433.404C-32.5244 432.866 -34.909 431.708 -36.9125 430.033C-38.9161 428.357 -40.4773 426.215 -41.4588 423.794C-42.4404 421.374 -42.8122 418.749 -42.5417 416.151C-42.2712 413.553 -41.3665 411.062 -39.9073 408.896C-38.4481 406.729 -36.479 404.955 -34.1732 403.728C-31.8674 402.501 -29.2955 401.859 -26.6837 401.86H5.20204C9.43034 401.86 13.4855 403.539 16.4753 406.529C19.4652 409.519 21.1449 413.574 21.1449 417.803C21.1449 422.031 19.4652 426.086 16.4753 429.076C13.4855 432.066 9.43034 433.746 5.20204 433.746Z" fill="#01008C"/>
<rect width="393" height="411" fill="url(#paint0_linear_262_389)"/>
</g>
<defs>
<linearGradient id="paint0_linear_262_389" x1="196.5" y1="-5.59968e-06" x2="393" y2="411" gradientUnits="userSpaceOnUse">
<stop offset="0.221564" stop-color="white"/>
<stop offset="1" stop-color="white" stop-opacity="0"/>
</linearGradient>
</defs>
</svg>
